<?xml version="1.0" encoding="UTF-8"?>
<svg id="Layer_2" xmlns="http://www.w3.org/2000/svg" version="1.1" viewBox="0 0 74.1 46.8">
  <!-- Generator: Adobe Illustrator 29.0.1, SVG Export Plug-In . SVG Version: 2.1.0 Build 192)  -->
  <g id="favicon">
    <g id="Black_1">
      <path d="M72.7,11.3c-1-2.3-2.3-4.2-4-5.9-1.7-1.7-3.6-3-5.9-4C60.6.5,58.1,0,55.6,0H18.5C16,0,13.5.5,11.3,1.5c-2.3,1-4.2,2.3-5.9,4-1.7,1.6-3,3.6-4,5.9C.5,13.5,0,16,0,18.5s.5,5,1.5,7.2c1,2.3,2.3,4.3,4,5.9,1.7,1.7,3.6,3,5.9,4,2.2,1,4.7,1.5,7.2,1.5h37c2.6,0,5-.5,7.2-1.5,2.3-1,4.2-2.3,5.9-4,1.7-1.6,3-3.6,4-5.9,1-2.2,1.4-4.7,1.4-7.2s-.5-5-1.4-7.2ZM64.2,27.1c-2.4,2.3-5.2,3.5-8.6,3.5H18.5c-3.3,0-6.2-1.2-8.6-3.5-2.3-2.4-3.5-5.2-3.5-8.6s1.2-6.2,3.5-8.6c2.4-2.3,5.2-3.5,8.6-3.5h37c3.3,0,6.2,1.2,8.6,3.5,2.3,2.4,3.5,5.2,3.5,8.6s-1.2,6.2-3.5,8.6Z"/>
      <path d="M24.7,44.4c2,1,4.1,1.7,6.4,2,1.2.2,2.4.2,3.6.3,1.6.1,6.1,0,6.1,0,1.2,0,2.4,0,3.6-.3,2.2-.3,4.3-1,6.3-2,2.7-1.3,5-3,7.1-5.1H17.6c2,2.1,4.4,3.8,7.1,5.1Z"/>
      <path d="M21.7,12.6c-3.3,0-5.9,2.7-5.9,5.9s2.6,5.9,5.9,5.9,5.9-2.6,5.9-5.9-2.6-5.9-5.9-5.9ZM21.7,21.7c-1.7,0-3.1-1.4-3.1-3.1s1.4-3.2,3.1-3.2,3.1,1.4,3.1,3.2-1.4,3.1-3.1,3.1Z"/>
      <path d="M52.4,12.6c-3.3,0-5.9,2.7-5.9,5.9s2.7,5.9,5.9,5.9,5.9-2.6,5.9-5.9-2.7-5.9-5.9-5.9ZM52.4,21.7c-1.7,0-3.2-1.4-3.2-3.1s1.4-3.2,3.2-3.2,3.2,1.4,3.2,3.2-1.4,3.1-3.2,3.1Z"/>
    </g>
  </g>
</svg>